<?xml version="1.0" standalone="no"?><!DOCTYPE svg PUBLIC "-//W3C//DTD SVG 1.1//EN" "http://www.w3.org/Graphics/SVG/1.1/DTD/svg11.dtd"><svg t="1594387363475" class="icon" viewBox="0 0 1024 1024" version="1.1" xmlns="http://www.w3.org/2000/svg" p-id="2058" xmlns:xlink="http://www.w3.org/1999/xlink" width="200" height="200"><defs><style type="text/css"></style></defs><path d="M207.018667 160H168.96c-30.933333 0-56.021333 25.088-56.021333 56.021333V808.96c0 30.933333 25.088 55.978667 56.021333 55.978667h37.973333c30.933333 0 56.021333-25.045333 56.021334-55.978667V216.021333c0-30.933333-25.088-56.021333-55.978667-56.021333z m168.661333 386.176l422.314667 303.402667a72.021333 72.021333 0 0 0 114.005333-58.453334V232.064a72.021333 72.021333 0 0 0-111.957333-59.904l-422.741334 281.984a55.978667 55.978667 0 0 0-1.621333 92.032z" p-id="2059" fill="#ffffff"></path></svg>